# xmcd
#
# Track frame offsets:
#	150
#	12447
#	24260
#	33797
#	44710
#	55320
#	67852
#	77237
#	87732
#	97897
#	107262
#	120607
#	131992
#	144010
#	154700
#	164865
#	183617
#	194492
#
# Disc length: 2733 seconds
#
# Revision: 4
# Processed by: cddbd v1.5.2PL0 Copyright (c) Steve Scherf et al.
# Submitted via: audiograbber 1.83.01
#
DISCID=f30aab12
DTITLE=Various Artist - Curtis Mayfield's Chicago Soul
DYEAR=1995
DGENRE=Oldies
TTITLE0=Opals - You Can't Hurt Me No More
TTITLE1=Walter Jackson - What Would You Do
TTITLE2=Major Lance - I'm The One Who Loves You
TTITLE3=Billy Butler and The Enchanters - I Can't Work No Longer
TTITLE4=Gene Chandler - Good Times
TTITLE5=Major Lance - The Monkey Time
TTITLE6=Artistics - Patty Cake
TTITLE7=Billy Butler and The Enchanters - (I've Got A Feeling) You're Gonna Be So
TTITLE7=rry
TTITLE8=Major Lance - Think Nothing About It
TTITLE9=Billy Butler and The Enchanters - Nevertheless (I Love You)
TTITLE10=Walter Jackson - It's All Over
TTITLE11=Billy Butler and The Enchanters - Found True Love
TTITLE12=Major Lance - You'll Want Me Back
TTITLE13=Walter Jackson - That's What Mama Say
TTITLE14=Billy Butler and The Enchanters - Gotta Get Away
TTITLE15=Walter Jackson - Funny (Not Too Much)
TTITLE16=Opals - You're Gonna Be Sorry
TTITLE17=Major Lance - Gonna Get Married
EXTD=Okeh - Legacy - Epic ZK 64770
EXTT0=
EXTT1=
EXTT2=
EXTT3=
EXTT4=
EXTT5=
EXTT6=
EXTT7=
EXTT8=
EXTT9=
EXTT10=
EXTT11=
EXTT12=
EXTT13=
EXTT14=
EXTT15=
EXTT16=
EXTT17=
PLAYORDER=
